<svg xmlns="http://www.w3.org/2000/svg" width="145" height="80.312" viewBox="0 0 145 80.312">
  <defs>
    <style>
      .cls-1 {
        fill: #8fafc3;
        fill-rule: evenodd;
      }
    </style>
  </defs>
  <path id="logo.svg" class="cls-1" d="M315.3,40.255c0-2.6-.864-4.014-3.885-4.014s-3.883,1.411-3.883,4.014V62.926c0,2.386.863,4.012,3.883,4.012s3.885-1.626,3.885-4.012V40.255Zm0.646,34.71c0-3.038-.862-4.772-4.639-4.772-3.56,0-4.424,1.735-4.424,4.772v29.179c0,3.037.864,4.771,4.424,4.771,3.777,0,4.639-1.734,4.639-4.771V74.965ZM303,74.857c0-4.013,2.05-5.857,4.639-6.183V68.457c-2.589-.434-3.992-2.494-3.992-6.617v-21.8c0-4.339,2.158-7.05,7.66-7.05s7.877,2.711,7.877,7.05v21.8c-0.109,4.123-1.188,6.183-3.993,6.617v0.217c2.589,0.325,4.64,2.17,4.64,6.183v29.829c0,4.772-3.13,7.483-8.524,7.483S303,109.458,303,104.686V74.857Zm38.624-42.594V68.709H331.373V32.262h-4.316v78.315h4.316V71.963h10.249v38.614h4.316V32.262h-4.316Zm26,8.135c0-3.471-1.942-5.316-5.07-5.316s-5.18,1.845-5.18,5.316v62.044c0,3.471,2.051,5.314,5.18,5.314s5.07-1.843,5.07-5.314V40.4Zm4.316,62.152c0,5.423-3.344,8.461-9.386,8.461s-9.494-3.038-9.494-8.461V40.29c0-5.425,3.452-8.461,9.494-8.461s9.386,3.036,9.386,8.461v62.26Zm26-70.288v70.289c0,5.422-3.344,8.46-9.386,8.46s-9.493-3.038-9.493-8.46V32.262h4.315v70.18c0,3.471,2.05,5.314,5.178,5.314s5.072-1.843,5.072-5.314V32.262h4.314Zm15.645,36.446c3.667,0,5.718-1.736,5.718-5.207V40.4c0-3.362-1.835-4.882-5.287-4.882h-4.639V68.709h4.208Zm-8.523-36.446h9.71c5.178,0,8.846,2.386,8.846,7.268v23.1c0,4.231-1.187,7.269-6.689,7.7v0.218c3.885,0.325,6.689,2.277,6.689,7.05v32.974H419.3V77.6c0-2.929-1.619-5.639-5.934-5.639h-3.992v38.614h-4.315V32.262Zm28.375,70.723c0,2.6.97,4.771,4.962,4.771,3.669,0,5.286-1.41,5.286-4.988V89.318a22.658,22.658,0,0,0-2.265-10.088l-9.063-17.247a24.462,24.462,0,0,1-2.8-10.629V39.965c0-5.1,3.452-8.136,8.953-8.136,5.827,0,8.847,2.17,8.847,7.267V53.09H443.47V39.53c0-3.146-1.619-4.447-4.64-4.447a4.369,4.369,0,0,0-4.638,4.664V51.9a17.206,17.206,0,0,0,1.725,7.484l8.846,17.029A26.146,26.146,0,0,1,448,88.232v14.753c0,4.988-2.481,8.026-9.278,8.026-6.688,0-9.17-3.038-9.17-8.352V88.775h3.884v14.21Z" transform="translate(-303 -31.844)"/>
</svg>
